<svg aria-hidden="true" style="position: absolute; width: 0; height: 0; overflow: hidden;" version="1.1" xmlns="http://www.w3.org/2000/svg" xmlns:xlink="http://www.w3.org/1999/xlink">
<defs>
<symbol id="icon-chevron_left" viewBox="0 0 32 32">
<path fill="#e3e3e3" style="fill: var(--color1, #e3e3e3)" d="M18.667 24l-8-8 8-8 1.867 1.867-6.133 6.133 6.133 6.133-1.867 1.867z"></path>
</symbol>

    <symbol id="arrow" xmlns="http://www.w3.org/2000/svg" height="24px" viewBox="0 -960 960 960" width="24px" fill="#e3e3e3">
      <path d="M504-480 320-664l56-56 240 240-240 240-56-56 184-184Z" />
    </symbol>
<symbol id="icon-chevron_right" viewBox="0 0 32 32">
<path fill="#e3e3e3" style="fill: var(--color1, #e3e3e3)" d="M16.8 16l-6.133-6.133 1.867-1.867 8 8-8 8-1.867-1.867 6.133-6.133z"></path>
</symbol>
<symbol id="icon-untitled1" viewBox="0 0 41 32">
<path fill="#c6c5c6" style="fill: var(--color2, #c6c5c6)" d="M15.893 0.341c0.341 0 0.512 0.171 0.512 0.512v14.848c0 3.072-0.725 5.803-2.176 8.192-1.451 2.475-3.328 4.395-5.632 5.76-2.389 1.451-4.949 2.176-7.68 2.176v-7.936c2.133 0 3.968-0.811 5.504-2.432 1.451-1.621 2.176-3.541 2.176-5.76h-7.168c-0.341 0-0.512-0.171-0.512-0.512v-14.336c0-0.341 0.171-0.512 0.512-0.512h14.464zM39.701 0.341c0.341 0 0.512 0.171 0.512 0.512v14.848c0 3.072-0.725 5.803-2.176 8.192-1.451 2.475-3.328 4.395-5.632 5.76-2.389 1.451-4.949 2.176-7.68 2.176v-7.936c2.133 0 3.968-0.811 5.504-2.432 1.451-1.621 2.176-3.541 2.176-5.76h-7.168c-0.341 0-0.512-0.171-0.512-0.512v-14.336c0-0.341 0.171-0.512 0.512-0.512h14.464z"></path>
</symbol>
<symbol id="icon-Group-20" viewBox="0 0 96 32">
<path fill="#4b4b4b" style="fill: var(--color3, #4b4b4b)" d="M30.769 15.077c0 8.327-6.75 15.077-15.077 15.077s-15.077-6.75-15.077-15.077c0-8.327 6.75-15.077 15.077-15.077s15.077 6.75 15.077 15.077z"></path>
<path fill="#d9d9d9" style="fill: var(--color4, #d9d9d9)" d="M95.385 15.077c0 8.327-6.75 15.077-15.077 15.077s-15.077-6.75-15.077-15.077c0-8.327 6.75-15.077 15.077-15.077s15.077 6.75 15.077 15.077z"></path>
</symbol>
</defs>
</svg>



